<?xml version="1.0" encoding="utf-8" standalone="no"?>
<!DOCTYPE svg PUBLIC "-//W3C//DTD SVG 1.1//EN"
  "http://www.w3.org/Graphics/SVG/1.1/DTD/svg11.dtd">
<svg xmlns:xlink="http://www.w3.org/1999/xlink" width="864pt" height="864pt" viewBox="0 0 864 864" xmlns="http://www.w3.org/2000/svg" version="1.1">
 <metadata>
  <rdf:RDF xmlns:dc="http://purl.org/dc/elements/1.1/" xmlns:cc="http://creativecommons.org/ns#" xmlns:rdf="http://www.w3.org/1999/02/22-rdf-syntax-ns#">
   <cc:Work>
    <dc:type rdf:resource="http://purl.org/dc/dcmitype/StillImage"/>
    <dc:date>2024-09-16T16:10:04.798809</dc:date>
    <dc:format>image/svg+xml</dc:format>
    <dc:creator>
     <cc:Agent>
      <dc:title>Matplotlib v3.7.0, https://matplotlib.org/</dc:title>
     </cc:Agent>
    </dc:creator>
   </cc:Work>
  </rdf:RDF>
 </metadata>
 <defs>
  <style type="text/css">*{stroke-linejoin: round; stroke-linecap: butt}</style>
 </defs>
 <g id="figure_1">
  <g id="patch_1">
   <path d="M 0 864 
L 864 864 
L 864 0 
L 0 0 
z
" style="fill: #ffffff"/>
  </g>
  <g id="axes_1">
   <g id="patch_2">
    <path d="M 108 756 
L 777.6 756 
L 777.6 103.68 
L 108 103.68 
z
" style="fill: #ffffff"/>
   </g>
   <g id="PathCollection_1">
    <defs>
     <path id="md788cc166c" d="M 0 3 
C 0.795609 3 1.55874 2.683901 2.12132 2.12132 
C 2.683901 1.55874 3 0.795609 3 0 
C 3 -0.795609 2.683901 -1.55874 2.12132 -2.12132 
C 1.55874 -2.683901 0.795609 -3 0 -3 
C -0.795609 -3 -1.55874 -2.683901 -2.12132 -2.12132 
C -2.683901 -1.55874 -3 -0.795609 -3 0 
C -3 0.795609 -2.683901 1.55874 -2.12132 2.12132 
C -1.55874 2.683901 -0.795609 3 0 3 
z
" style="stroke: #ff0000; stroke-opacity: 0.8"/>
    </defs>
    <g clip-path="url(#p24a0c2ed1f)">
     <use xlink:href="#md788cc166c" x="612.974958" y="413.90288" style="fill: #ff0000; fill-opacity: 0.8; stroke: #ff0000; stroke-opacity: 0.8"/>
     <use xlink:href="#md788cc166c" x="164.543011" y="477.412571" style="fill: #ff0000; fill-opacity: 0.8; stroke: #ff0000; stroke-opacity: 0.8"/>
     <use xlink:href="#md788cc166c" x="297.109259" y="630.518337" style="fill: #ff0000; fill-opacity: 0.8; stroke: #ff0000; stroke-opacity: 0.8"/>
     <use xlink:href="#md788cc166c" x="142.254829" y="198.274316" style="fill: #ff0000; fill-opacity: 0.8; stroke: #ff0000; stroke-opacity: 0.8"/>
    </g>
   </g>
   <g id="PathCollection_2">
    <defs>
     <path id="mc1fec957b5" d="M 0 -3 
L -3 3 
L 3 3 
z
" style="stroke: #0000ff; stroke-opacity: 0.8"/>
    </defs>
    <g clip-path="url(#p24a0c2ed1f)">
     <use xlink:href="#mc1fec957b5" x="155.361786" y="376.418084" style="fill: #0000ff; fill-opacity: 0.8; stroke: #0000ff; stroke-opacity: 0.8"/>
     <use xlink:href="#mc1fec957b5" x="602.28222" y="427.900272" style="fill: #0000ff; fill-opacity: 0.8; stroke: #0000ff; stroke-opacity: 0.8"/>
     <use xlink:href="#mc1fec957b5" x="138.436364" y="543.804912" style="fill: #0000ff; fill-opacity: 0.8; stroke: #0000ff; stroke-opacity: 0.8"/>
     <use xlink:href="#mc1fec957b5" x="740.863801" y="369.265751" style="fill: #0000ff; fill-opacity: 0.8; stroke: #0000ff; stroke-opacity: 0.8"/>
     <use xlink:href="#mc1fec957b5" x="401.826545" y="480.652532" style="fill: #0000ff; fill-opacity: 0.8; stroke: #0000ff; stroke-opacity: 0.8"/>
     <use xlink:href="#mc1fec957b5" x="296.485299" y="714.675669" style="fill: #0000ff; fill-opacity: 0.8; stroke: #0000ff; stroke-opacity: 0.8"/>
     <use xlink:href="#mc1fec957b5" x="162.327931" y="281.583335" style="fill: #0000ff; fill-opacity: 0.8; stroke: #0000ff; stroke-opacity: 0.8"/>
     <use xlink:href="#mc1fec957b5" x="206.83494" y="422.803407" style="fill: #0000ff; fill-opacity: 0.8; stroke: #0000ff; stroke-opacity: 0.8"/>
     <use xlink:href="#mc1fec957b5" x="558.985715" y="494.325454" style="fill: #0000ff; fill-opacity: 0.8; stroke: #0000ff; stroke-opacity: 0.8"/>
     <use xlink:href="#mc1fec957b5" x="747.163636" y="351.535896" style="fill: #0000ff; fill-opacity: 0.8; stroke: #0000ff; stroke-opacity: 0.8"/>
     <use xlink:href="#mc1fec957b5" x="175.498834" y="285.46766" style="fill: #0000ff; fill-opacity: 0.8; stroke: #0000ff; stroke-opacity: 0.8"/>
     <use xlink:href="#mc1fec957b5" x="247.552613" y="489.035142" style="fill: #0000ff; fill-opacity: 0.8; stroke: #0000ff; stroke-opacity: 0.8"/>
     <use xlink:href="#mc1fec957b5" x="701.795099" y="358.014517" style="fill: #0000ff; fill-opacity: 0.8; stroke: #0000ff; stroke-opacity: 0.8"/>
     <use xlink:href="#mc1fec957b5" x="351.997699" y="676.28364" style="fill: #0000ff; fill-opacity: 0.8; stroke: #0000ff; stroke-opacity: 0.8"/>
     <use xlink:href="#mc1fec957b5" x="198.848355" y="536.530286" style="fill: #0000ff; fill-opacity: 0.8; stroke: #0000ff; stroke-opacity: 0.8"/>
     <use xlink:href="#mc1fec957b5" x="230.250498" y="603.421714" style="fill: #0000ff; fill-opacity: 0.8; stroke: #0000ff; stroke-opacity: 0.8"/>
     <use xlink:href="#mc1fec957b5" x="678.094926" y="421.978626" style="fill: #0000ff; fill-opacity: 0.8; stroke: #0000ff; stroke-opacity: 0.8"/>
     <use xlink:href="#mc1fec957b5" x="183.775102" y="358.360961" style="fill: #0000ff; fill-opacity: 0.8; stroke: #0000ff; stroke-opacity: 0.8"/>
     <use xlink:href="#mc1fec957b5" x="233.665416" y="726.349091" style="fill: #0000ff; fill-opacity: 0.8; stroke: #0000ff; stroke-opacity: 0.8"/>
     <use xlink:href="#mc1fec957b5" x="141.205647" y="531.946852" style="fill: #0000ff; fill-opacity: 0.8; stroke: #0000ff; stroke-opacity: 0.8"/>
     <use xlink:href="#mc1fec957b5" x="165.709414" y="502.154536" style="fill: #0000ff; fill-opacity: 0.8; stroke: #0000ff; stroke-opacity: 0.8"/>
     <use xlink:href="#mc1fec957b5" x="471.523629" y="396.973081" style="fill: #0000ff; fill-opacity: 0.8; stroke: #0000ff; stroke-opacity: 0.8"/>
     <use xlink:href="#mc1fec957b5" x="378.476801" y="512.130125" style="fill: #0000ff; fill-opacity: 0.8; stroke: #0000ff; stroke-opacity: 0.8"/>
     <use xlink:href="#mc1fec957b5" x="311.292375" y="422.280213" style="fill: #0000ff; fill-opacity: 0.8; stroke: #0000ff; stroke-opacity: 0.8"/>
     <use xlink:href="#mc1fec957b5" x="160.435208" y="506.876184" style="fill: #0000ff; fill-opacity: 0.8; stroke: #0000ff; stroke-opacity: 0.8"/>
     <use xlink:href="#mc1fec957b5" x="271.775272" y="383.071074" style="fill: #0000ff; fill-opacity: 0.8; stroke: #0000ff; stroke-opacity: 0.8"/>
     <use xlink:href="#mc1fec957b5" x="171.07662" y="506.955437" style="fill: #0000ff; fill-opacity: 0.8; stroke: #0000ff; stroke-opacity: 0.8"/>
     <use xlink:href="#mc1fec957b5" x="330.374182" y="133.330909" style="fill: #0000ff; fill-opacity: 0.8; stroke: #0000ff; stroke-opacity: 0.8"/>
     <use xlink:href="#mc1fec957b5" x="212.019652" y="211.025478" style="fill: #0000ff; fill-opacity: 0.8; stroke: #0000ff; stroke-opacity: 0.8"/>
    </g>
   </g>
   <g id="matplotlib.axis_1">
    <g id="xtick_1">
     <g id="line2d_1">
      <defs>
       <path id="m8ff2585625" d="M 0 0 
L 0 3.5 
" style="stroke: #000000; stroke-width: 0.8"/>
      </defs>
      <g>
       <use xlink:href="#m8ff2585625" x="150.433199" y="756" style="stroke: #000000; stroke-width: 0.8"/>
      </g>
     </g>
     <g id="text_1">
      <!-- -0.50 -->
      <g transform="translate(137.933199 769.875) scale(0.1 -0.1)">
       <defs>
        <path id="SimHei-2d" d="M 2975 2125 
L 125 2125 
L 125 2525 
L 2975 2525 
L 2975 2125 
z
" transform="scale(0.015625)"/>
        <path id="SimHei-30" d="M 225 2537 
Q 250 3200 412 3587 
Q 575 3975 875 4225 
Q 1175 4475 1612 4475 
Q 2050 4475 2375 4112 
Q 2700 3750 2800 3200 
Q 2900 2650 2862 1937 
Q 2825 1225 2612 775 
Q 2400 325 1975 150 
Q 1550 -25 1125 187 
Q 700 400 525 750 
Q 350 1100 275 1487 
Q 200 1875 225 2537 
z
M 750 2687 
Q 675 2000 800 1462 
Q 925 925 1212 700 
Q 1500 475 1800 612 
Q 2100 750 2237 1162 
Q 2375 1575 2375 2062 
Q 2375 2550 2337 2950 
Q 2300 3350 2112 3675 
Q 1925 4000 1612 4012 
Q 1300 4025 1062 3700 
Q 825 3375 750 2687 
z
" transform="scale(0.015625)"/>
        <path id="SimHei-2e" d="M 1075 125 
L 500 125 
L 500 675 
L 1075 675 
L 1075 125 
z
" transform="scale(0.015625)"/>
        <path id="SimHei-35" d="M 550 1325 
Q 725 650 1150 575 
Q 1575 500 1837 662 
Q 2100 825 2212 1087 
Q 2325 1350 2312 1675 
Q 2300 2000 2137 2225 
Q 1975 2450 1725 2525 
Q 1475 2600 1162 2525 
Q 850 2450 650 2175 
L 225 2225 
Q 275 2375 700 4375 
L 2675 4375 
L 2675 3925 
L 1075 3925 
Q 950 3250 825 2850 
Q 1200 3025 1525 3012 
Q 1850 3000 2150 2862 
Q 2450 2725 2587 2487 
Q 2725 2250 2787 2012 
Q 2850 1775 2837 1500 
Q 2825 1225 2725 937 
Q 2625 650 2425 462 
Q 2225 275 1937 162 
Q 1650 50 1275 75 
Q 900 100 562 350 
Q 225 600 100 1200 
L 550 1325 
z
" transform="scale(0.015625)"/>
       </defs>
       <use xlink:href="#SimHei-2d"/>
       <use xlink:href="#SimHei-30" x="50"/>
       <use xlink:href="#SimHei-2e" x="100"/>
       <use xlink:href="#SimHei-35" x="150"/>
       <use xlink:href="#SimHei-30" x="200"/>
      </g>
     </g>
    </g>
    <g id="xtick_2">
     <g id="line2d_2">
      <g>
       <use xlink:href="#m8ff2585625" x="235.579944" y="756" style="stroke: #000000; stroke-width: 0.8"/>
      </g>
     </g>
     <g id="text_2">
      <!-- -0.25 -->
      <g transform="translate(223.079944 769.875) scale(0.1 -0.1)">
       <defs>
        <path id="SimHei-32" d="M 300 250 
Q 325 625 650 925 
Q 975 1225 1475 1862 
Q 1975 2500 2125 2850 
Q 2275 3200 2237 3450 
Q 2200 3700 2000 3862 
Q 1800 4025 1537 4000 
Q 1275 3975 1037 3800 
Q 800 3625 675 3275 
L 200 3350 
Q 400 3925 712 4187 
Q 1025 4450 1450 4475 
Q 1700 4500 1900 4462 
Q 2100 4425 2312 4287 
Q 2525 4150 2662 3875 
Q 2800 3600 2762 3212 
Q 2725 2825 2375 2287 
Q 2025 1750 1025 600 
L 2825 600 
L 2825 150 
L 300 150 
L 300 250 
z
" transform="scale(0.015625)"/>
       </defs>
       <use xlink:href="#SimHei-2d"/>
       <use xlink:href="#SimHei-30" x="50"/>
       <use xlink:href="#SimHei-2e" x="100"/>
       <use xlink:href="#SimHei-32" x="150"/>
       <use xlink:href="#SimHei-35" x="200"/>
      </g>
     </g>
    </g>
    <g id="xtick_3">
     <g id="line2d_3">
      <g>
       <use xlink:href="#m8ff2585625" x="320.726689" y="756" style="stroke: #000000; stroke-width: 0.8"/>
      </g>
     </g>
     <g id="text_3">
      <!-- 0.00 -->
      <g transform="translate(310.726689 769.875) scale(0.1 -0.1)">
       <use xlink:href="#SimHei-30"/>
       <use xlink:href="#SimHei-2e" x="50"/>
       <use xlink:href="#SimHei-30" x="100"/>
       <use xlink:href="#SimHei-30" x="150"/>
      </g>
     </g>
    </g>
    <g id="xtick_4">
     <g id="line2d_4">
      <g>
       <use xlink:href="#m8ff2585625" x="405.873435" y="756" style="stroke: #000000; stroke-width: 0.8"/>
      </g>
     </g>
     <g id="text_4">
      <!-- 0.25 -->
      <g transform="translate(395.873435 769.875) scale(0.1 -0.1)">
       <use xlink:href="#SimHei-30"/>
       <use xlink:href="#SimHei-2e" x="50"/>
       <use xlink:href="#SimHei-32" x="100"/>
       <use xlink:href="#SimHei-35" x="150"/>
      </g>
     </g>
    </g>
    <g id="xtick_5">
     <g id="line2d_5">
      <g>
       <use xlink:href="#m8ff2585625" x="491.02018" y="756" style="stroke: #000000; stroke-width: 0.8"/>
      </g>
     </g>
     <g id="text_5">
      <!-- 0.50 -->
      <g transform="translate(481.02018 769.875) scale(0.1 -0.1)">
       <use xlink:href="#SimHei-30"/>
       <use xlink:href="#SimHei-2e" x="50"/>
       <use xlink:href="#SimHei-35" x="100"/>
       <use xlink:href="#SimHei-30" x="150"/>
      </g>
     </g>
    </g>
    <g id="xtick_6">
     <g id="line2d_6">
      <g>
       <use xlink:href="#m8ff2585625" x="576.166925" y="756" style="stroke: #000000; stroke-width: 0.8"/>
      </g>
     </g>
     <g id="text_6">
      <!-- 0.75 -->
      <g transform="translate(566.166925 769.875) scale(0.1 -0.1)">
       <defs>
        <path id="SimHei-37" d="M 850 150 
Q 1300 2050 2425 3925 
L 275 3925 
L 275 4375 
L 2950 4375 
L 2950 3950 
Q 1775 2050 1400 150 
L 850 150 
z
" transform="scale(0.015625)"/>
       </defs>
       <use xlink:href="#SimHei-30"/>
       <use xlink:href="#SimHei-2e" x="50"/>
       <use xlink:href="#SimHei-37" x="100"/>
       <use xlink:href="#SimHei-35" x="150"/>
      </g>
     </g>
    </g>
    <g id="xtick_7">
     <g id="line2d_7">
      <g>
       <use xlink:href="#m8ff2585625" x="661.313671" y="756" style="stroke: #000000; stroke-width: 0.8"/>
      </g>
     </g>
     <g id="text_7">
      <!-- 1.00 -->
      <g transform="translate(651.313671 769.875) scale(0.1 -0.1)">
       <defs>
        <path id="SimHei-31" d="M 1400 3600 
Q 1075 3275 575 2975 
L 575 3450 
Q 1200 3875 1600 4450 
L 1900 4450 
L 1900 150 
L 1400 150 
L 1400 3600 
z
" transform="scale(0.015625)"/>
       </defs>
       <use xlink:href="#SimHei-31"/>
       <use xlink:href="#SimHei-2e" x="50"/>
       <use xlink:href="#SimHei-30" x="100"/>
       <use xlink:href="#SimHei-30" x="150"/>
      </g>
     </g>
    </g>
    <g id="xtick_8">
     <g id="line2d_8">
      <g>
       <use xlink:href="#m8ff2585625" x="746.460416" y="756" style="stroke: #000000; stroke-width: 0.8"/>
      </g>
     </g>
     <g id="text_8">
      <!-- 1.25 -->
      <g transform="translate(736.460416 769.875) scale(0.1 -0.1)">
       <use xlink:href="#SimHei-31"/>
       <use xlink:href="#SimHei-2e" x="50"/>
       <use xlink:href="#SimHei-32" x="100"/>
       <use xlink:href="#SimHei-35" x="150"/>
      </g>
     </g>
    </g>
    <g id="text_9">
     <!-- Column X -->
     <g transform="translate(422.8 782) scale(0.1 -0.1)">
      <defs>
       <path id="SimHei-43" d="M 2975 1825 
Q 2950 875 2575 475 
Q 2200 75 1675 75 
Q 1075 75 650 562 
Q 225 1050 225 2125 
Q 225 3300 637 3875 
Q 1050 4450 1700 4450 
Q 2250 4450 2612 4037 
Q 2975 3625 2950 2875 
L 2400 2875 
Q 2400 3425 2225 3700 
Q 2050 3975 1700 3975 
Q 1300 3975 1062 3562 
Q 825 3150 825 2175 
Q 825 1275 1062 912 
Q 1300 550 1675 550 
Q 1950 550 2175 812 
Q 2400 1075 2400 1825 
L 2975 1825 
z
" transform="scale(0.015625)"/>
       <path id="SimHei-6f" d="M 2925 1525 
Q 2925 875 2525 475 
Q 2125 75 1575 75 
Q 1025 75 625 475 
Q 225 875 225 1525 
Q 225 2175 625 2575 
Q 1025 2975 1575 2975 
Q 2125 2975 2525 2575 
Q 2925 2175 2925 1525 
z
M 2375 1525 
Q 2375 2025 2125 2275 
Q 1875 2525 1575 2525 
Q 1275 2525 1025 2275 
Q 775 2025 775 1525 
Q 775 1025 1025 775 
Q 1275 525 1575 525 
Q 1875 525 2125 775 
Q 2375 1025 2375 1525 
z
" transform="scale(0.015625)"/>
       <path id="SimHei-6c" d="M 1825 125 
L 1325 125 
L 1325 4400 
L 1825 4400 
L 1825 125 
z
" transform="scale(0.015625)"/>
       <path id="SimHei-75" d="M 2800 125 
L 2300 125 
L 2300 650 
Q 2100 375 1862 225 
Q 1625 75 1250 75 
Q 800 75 575 325 
Q 350 575 350 950 
L 350 2925 
L 850 2925 
L 850 1125 
Q 850 825 1000 650 
Q 1150 475 1400 475 
Q 1725 475 2012 812 
Q 2300 1150 2300 1650 
L 2300 2925 
L 2800 2925 
L 2800 125 
z
" transform="scale(0.015625)"/>
       <path id="SimHei-6d" d="M 3050 125 
L 2550 125 
L 2550 2150 
Q 2550 2300 2500 2400 
Q 2450 2500 2300 2500 
Q 2125 2500 1975 2312 
Q 1825 2125 1825 1825 
L 1825 125 
L 1325 125 
L 1325 2150 
Q 1325 2300 1275 2400 
Q 1225 2500 1075 2500 
Q 900 2500 750 2312 
Q 600 2125 600 1825 
L 600 125 
L 100 125 
L 100 2925 
L 600 2925 
L 600 2550 
Q 725 2750 900 2862 
Q 1075 2975 1275 2975 
Q 1475 2975 1612 2862 
Q 1750 2750 1800 2550 
Q 1925 2750 2087 2862 
Q 2250 2975 2450 2975 
Q 2750 2975 2900 2812 
Q 3050 2650 3050 2350 
L 3050 125 
z
" transform="scale(0.015625)"/>
       <path id="SimHei-6e" d="M 2800 125 
L 2300 125 
L 2300 1925 
Q 2300 2225 2150 2400 
Q 2000 2575 1750 2575 
Q 1425 2575 1137 2237 
Q 850 1900 850 1400 
L 850 125 
L 350 125 
L 350 2925 
L 850 2925 
L 850 2400 
Q 1050 2675 1287 2825 
Q 1525 2975 1900 2975 
Q 2350 2975 2575 2725 
Q 2800 2475 2800 2100 
L 2800 125 
z
" transform="scale(0.015625)"/>
       <path id="SimHei-20" transform="scale(0.015625)"/>
       <path id="SimHei-58" d="M 3000 125 
L 2400 125 
L 1550 1875 
L 700 125 
L 100 125 
L 1275 2375 
L 225 4400 
L 825 4400 
L 1550 2850 
L 2275 4400 
L 2875 4400 
L 1825 2375 
L 3000 125 
z
" transform="scale(0.015625)"/>
      </defs>
      <use xlink:href="#SimHei-43"/>
      <use xlink:href="#SimHei-6f" x="50"/>
      <use xlink:href="#SimHei-6c" x="100"/>
      <use xlink:href="#SimHei-75" x="150"/>
      <use xlink:href="#SimHei-6d" x="200"/>
      <use xlink:href="#SimHei-6e" x="250"/>
      <use xlink:href="#SimHei-20" x="300"/>
      <use xlink:href="#SimHei-58" x="350"/>
     </g>
    </g>
   </g>
   <g id="matplotlib.axis_2">
    <g id="ytick_1">
     <g id="line2d_9">
      <defs>
       <path id="m7d12e3417c" d="M 0 0 
L -3.5 0 
" style="stroke: #000000; stroke-width: 0.8"/>
      </defs>
      <g>
       <use xlink:href="#m7d12e3417c" x="108" y="656.858773" style="stroke: #000000; stroke-width: 0.8"/>
      </g>
     </g>
     <g id="text_10">
      <!-- -0.4 -->
      <g transform="translate(81 660.296273) scale(0.1 -0.1)">
       <defs>
        <path id="SimHei-34" d="M 2000 1100 
L 75 1100 
L 75 1525 
L 2100 4450 
L 2475 4450 
L 2475 1525 
L 3075 1525 
L 3075 1100 
L 2475 1100 
L 2475 150 
L 2000 150 
L 2000 1100 
z
M 2000 1525 
L 2000 3500 
L 600 1525 
L 2000 1525 
z
" transform="scale(0.015625)"/>
       </defs>
       <use xlink:href="#SimHei-2d"/>
       <use xlink:href="#SimHei-30" x="50"/>
       <use xlink:href="#SimHei-2e" x="100"/>
       <use xlink:href="#SimHei-34" x="150"/>
      </g>
     </g>
    </g>
    <g id="ytick_2">
     <g id="line2d_10">
      <g>
       <use xlink:href="#m7d12e3417c" x="108" y="546.026566" style="stroke: #000000; stroke-width: 0.8"/>
      </g>
     </g>
     <g id="text_11">
      <!-- -0.2 -->
      <g transform="translate(81 549.464066) scale(0.1 -0.1)">
       <use xlink:href="#SimHei-2d"/>
       <use xlink:href="#SimHei-30" x="50"/>
       <use xlink:href="#SimHei-2e" x="100"/>
       <use xlink:href="#SimHei-32" x="150"/>
      </g>
     </g>
    </g>
    <g id="ytick_3">
     <g id="line2d_11">
      <g>
       <use xlink:href="#m7d12e3417c" x="108" y="435.194359" style="stroke: #000000; stroke-width: 0.8"/>
      </g>
     </g>
     <g id="text_12">
      <!-- 0.0 -->
      <g transform="translate(86 438.631859) scale(0.1 -0.1)">
       <use xlink:href="#SimHei-30"/>
       <use xlink:href="#SimHei-2e" x="50"/>
       <use xlink:href="#SimHei-30" x="100"/>
      </g>
     </g>
    </g>
    <g id="ytick_4">
     <g id="line2d_12">
      <g>
       <use xlink:href="#m7d12e3417c" x="108" y="324.362152" style="stroke: #000000; stroke-width: 0.8"/>
      </g>
     </g>
     <g id="text_13">
      <!-- 0.2 -->
      <g transform="translate(86 327.799652) scale(0.1 -0.1)">
       <use xlink:href="#SimHei-30"/>
       <use xlink:href="#SimHei-2e" x="50"/>
       <use xlink:href="#SimHei-32" x="100"/>
      </g>
     </g>
    </g>
    <g id="ytick_5">
     <g id="line2d_13">
      <g>
       <use xlink:href="#m7d12e3417c" x="108" y="213.529945" style="stroke: #000000; stroke-width: 0.8"/>
      </g>
     </g>
     <g id="text_14">
      <!-- 0.4 -->
      <g transform="translate(86 216.967445) scale(0.1 -0.1)">
       <use xlink:href="#SimHei-30"/>
       <use xlink:href="#SimHei-2e" x="50"/>
       <use xlink:href="#SimHei-34" x="100"/>
      </g>
     </g>
    </g>
    <g id="text_15">
     <!-- Column Y -->
     <g transform="translate(75.75 449.84) rotate(-90) scale(0.1 -0.1)">
      <defs>
       <path id="SimHei-59" d="M 3025 4400 
L 1850 2050 
L 1850 125 
L 1275 125 
L 1275 2050 
L 100 4400 
L 675 4400 
L 1550 2575 
L 1575 2575 
L 2450 4400 
L 3025 4400 
z
" transform="scale(0.015625)"/>
      </defs>
      <use xlink:href="#SimHei-43"/>
      <use xlink:href="#SimHei-6f" x="50"/>
      <use xlink:href="#SimHei-6c" x="100"/>
      <use xlink:href="#SimHei-75" x="150"/>
      <use xlink:href="#SimHei-6d" x="200"/>
      <use xlink:href="#SimHei-6e" x="250"/>
      <use xlink:href="#SimHei-20" x="300"/>
      <use xlink:href="#SimHei-59" x="350"/>
     </g>
    </g>
   </g>
   <g id="patch_3">
    <path d="M 108 756 
L 108 103.68 
" style="fill: none; stroke: #000000; stroke-width: 0.8; stroke-linejoin: miter; stroke-linecap: square"/>
   </g>
   <g id="patch_4">
    <path d="M 777.6 756 
L 777.6 103.68 
" style="fill: none; stroke: #000000; stroke-width: 0.8; stroke-linejoin: miter; stroke-linecap: square"/>
   </g>
   <g id="patch_5">
    <path d="M 108 756 
L 777.6 756 
" style="fill: none; stroke: #000000; stroke-width: 0.8; stroke-linejoin: miter; stroke-linecap: square"/>
   </g>
   <g id="patch_6">
    <path d="M 108 103.68 
L 777.6 103.68 
" style="fill: none; stroke: #000000; stroke-width: 0.8; stroke-linejoin: miter; stroke-linecap: square"/>
   </g>
   <g id="text_16">
    <!-- fancl -->
    <g transform="translate(612.974958 413.90288) scale(0.12 -0.12)">
     <defs>
      <path id="SimHei-66" d="M 2850 3825 
Q 2725 3900 2550 3950 
Q 2375 4000 2100 4000 
Q 1825 4000 1725 3862 
Q 1625 3725 1625 3525 
L 1625 2925 
L 2650 2925 
L 2650 2525 
L 1625 2525 
L 1625 125 
L 1125 125 
L 1125 2525 
L 275 2525 
L 275 2925 
L 1125 2925 
L 1125 3500 
Q 1125 3950 1400 4200 
Q 1675 4450 2125 4450 
Q 2400 4450 2562 4412 
Q 2725 4375 2850 4325 
L 2850 3825 
z
" transform="scale(0.015625)"/>
      <path id="SimHei-61" d="M 2875 125 
L 2275 125 
Q 2225 175 2200 262 
Q 2175 350 2175 475 
Q 2000 275 1750 175 
Q 1500 75 1225 75 
Q 825 75 550 275 
Q 275 475 275 850 
Q 275 1225 525 1450 
Q 775 1675 1300 1750 
Q 1650 1800 1912 1875 
Q 2175 1950 2175 2075 
Q 2175 2225 2062 2375 
Q 1950 2525 1575 2525 
Q 1275 2525 1137 2412 
Q 1000 2300 950 2100 
L 400 2100 
Q 450 2500 762 2737 
Q 1075 2975 1575 2975 
Q 2125 2975 2400 2725 
Q 2675 2475 2675 2025 
L 2675 650 
Q 2675 500 2725 375 
Q 2775 250 2875 125 
z
M 2175 1050 
L 2175 1550 
Q 2025 1500 1887 1462 
Q 1750 1425 1425 1375 
Q 1050 1325 937 1200 
Q 825 1075 825 900 
Q 825 750 937 637 
Q 1050 525 1275 525 
Q 1500 525 1762 650 
Q 2025 775 2175 1050 
z
" transform="scale(0.015625)"/>
      <path id="SimHei-63" d="M 2850 1250 
Q 2850 725 2487 400 
Q 2125 75 1575 75 
Q 1025 75 625 462 
Q 225 850 225 1525 
Q 225 2200 625 2587 
Q 1025 2975 1575 2975 
Q 2125 2975 2450 2687 
Q 2775 2400 2775 2000 
L 2225 2000 
Q 2200 2300 2012 2412 
Q 1825 2525 1575 2525 
Q 1275 2525 1025 2287 
Q 775 2050 775 1525 
Q 775 1000 1025 762 
Q 1275 525 1575 525 
Q 1900 525 2100 700 
Q 2300 875 2300 1250 
L 2850 1250 
z
" transform="scale(0.015625)"/>
     </defs>
     <use xlink:href="#SimHei-66"/>
     <use xlink:href="#SimHei-61" x="50"/>
     <use xlink:href="#SimHei-6e" x="100"/>
     <use xlink:href="#SimHei-63" x="150"/>
     <use xlink:href="#SimHei-6c" x="200"/>
    </g>
   </g>
   <g id="text_17">
    <!-- lifespace -->
    <g transform="translate(164.543011 477.412571) scale(0.12 -0.12)">
     <defs>
      <path id="SimHei-69" d="M 1800 3725 
L 1300 3725 
L 1300 4375 
L 1800 4375 
L 1800 3725 
z
M 1800 125 
L 1300 125 
L 1300 2925 
L 1800 2925 
L 1800 125 
z
" transform="scale(0.015625)"/>
      <path id="SimHei-65" d="M 2850 1075 
Q 2800 625 2450 350 
Q 2100 75 1625 75 
Q 1025 75 637 462 
Q 250 850 250 1525 
Q 250 2200 637 2587 
Q 1025 2975 1625 2975 
Q 2150 2975 2487 2637 
Q 2825 2300 2825 1525 
L 800 1525 
Q 800 975 1037 750 
Q 1275 525 1625 525 
Q 1900 525 2075 662 
Q 2250 800 2300 1075 
L 2850 1075 
z
M 2250 1925 
Q 2200 2275 2025 2412 
Q 1850 2550 1575 2550 
Q 1325 2550 1125 2412 
Q 925 2275 825 1925 
L 2250 1925 
z
" transform="scale(0.015625)"/>
      <path id="SimHei-73" d="M 2750 900 
Q 2750 500 2437 287 
Q 2125 75 1650 75 
Q 1050 75 725 312 
Q 400 550 400 1000 
L 900 1000 
Q 900 700 1112 600 
Q 1325 500 1625 500 
Q 1925 500 2075 612 
Q 2225 725 2225 900 
Q 2225 1025 2100 1150 
Q 1975 1275 1475 1350 
Q 900 1425 687 1637 
Q 475 1850 475 2200 
Q 475 2500 762 2737 
Q 1050 2975 1600 2975 
Q 2100 2975 2387 2750 
Q 2675 2525 2675 2150 
L 2175 2150 
Q 2175 2375 2012 2462 
Q 1850 2550 1600 2550 
Q 1275 2550 1137 2437 
Q 1000 2325 1000 2175 
Q 1000 2000 1125 1900 
Q 1250 1800 1650 1750 
Q 2300 1650 2525 1437 
Q 2750 1225 2750 900 
z
" transform="scale(0.015625)"/>
      <path id="SimHei-70" d="M 2825 1525 
Q 2825 800 2475 425 
Q 2125 50 1625 50 
Q 1350 50 1150 162 
Q 950 275 800 500 
L 800 -800 
L 300 -800 
L 300 2925 
L 800 2925 
L 800 2550 
Q 950 2775 1150 2875 
Q 1350 2975 1625 2975 
Q 2125 2975 2475 2612 
Q 2825 2250 2825 1525 
z
M 2275 1525 
Q 2275 2000 2087 2262 
Q 1900 2525 1525 2525 
Q 1225 2525 1012 2262 
Q 800 2000 800 1525 
Q 800 1050 1012 775 
Q 1225 500 1525 500 
Q 1900 500 2087 775 
Q 2275 1050 2275 1525 
z
" transform="scale(0.015625)"/>
     </defs>
     <use xlink:href="#SimHei-6c"/>
     <use xlink:href="#SimHei-69" x="50"/>
     <use xlink:href="#SimHei-66" x="100"/>
     <use xlink:href="#SimHei-65" x="150"/>
     <use xlink:href="#SimHei-73" x="200"/>
     <use xlink:href="#SimHei-70" x="250"/>
     <use xlink:href="#SimHei-61" x="300"/>
     <use xlink:href="#SimHei-63" x="350"/>
     <use xlink:href="#SimHei-65" x="400"/>
    </g>
   </g>
   <g id="text_18">
    <!-- swisse -->
    <g transform="translate(297.109259 630.518337) scale(0.12 -0.12)">
     <defs>
      <path id="SimHei-77" d="M 3075 2925 
L 2450 75 
L 1975 75 
L 1575 2250 
L 1525 2250 
L 1125 75 
L 650 75 
L 25 2925 
L 550 2925 
L 875 1050 
L 925 1050 
L 1275 2925 
L 1825 2925 
L 2175 1050 
L 2225 1050 
L 2550 2925 
L 3075 2925 
z
" transform="scale(0.015625)"/>
     </defs>
     <use xlink:href="#SimHei-73"/>
     <use xlink:href="#SimHei-77" x="50"/>
     <use xlink:href="#SimHei-69" x="100"/>
     <use xlink:href="#SimHei-73" x="150"/>
     <use xlink:href="#SimHei-73" x="200"/>
     <use xlink:href="#SimHei-65" x="250"/>
    </g>
   </g>
   <g id="text_19">
    <!-- wonderlab -->
    <g transform="translate(142.254829 198.274316) scale(0.12 -0.12)">
     <defs>
      <path id="SimHei-64" d="M 2750 125 
L 2250 125 
L 2250 500 
Q 2100 275 1900 175 
Q 1700 75 1425 75 
Q 925 75 575 437 
Q 225 800 225 1525 
Q 225 2250 575 2625 
Q 925 3000 1425 3000 
Q 1700 3000 1900 2887 
Q 2100 2775 2250 2550 
L 2250 4400 
L 2750 4400 
L 2750 125 
z
M 2250 1525 
Q 2250 2000 2037 2275 
Q 1825 2550 1525 2550 
Q 1150 2550 962 2275 
Q 775 2000 775 1525 
Q 775 1050 962 787 
Q 1150 525 1525 525 
Q 1825 525 2037 787 
Q 2250 1050 2250 1525 
z
" transform="scale(0.015625)"/>
      <path id="SimHei-72" d="M 2500 2425 
Q 2025 2500 1700 2287 
Q 1375 2075 1150 1550 
L 1150 125 
L 650 125 
L 650 2925 
L 1150 2925 
L 1150 2200 
Q 1375 2600 1712 2787 
Q 2050 2975 2500 2975 
L 2500 2425 
z
" transform="scale(0.015625)"/>
      <path id="SimHei-62" d="M 2825 1525 
Q 2825 800 2475 437 
Q 2125 75 1625 75 
Q 1350 75 1150 175 
Q 950 275 800 500 
L 800 125 
L 300 125 
L 300 4400 
L 800 4400 
L 800 2550 
Q 950 2775 1150 2887 
Q 1350 3000 1625 3000 
Q 2125 3000 2475 2625 
Q 2825 2250 2825 1525 
z
M 2275 1525 
Q 2275 2000 2087 2275 
Q 1900 2550 1525 2550 
Q 1225 2550 1012 2275 
Q 800 2000 800 1525 
Q 800 1050 1012 787 
Q 1225 525 1525 525 
Q 1900 525 2087 787 
Q 2275 1050 2275 1525 
z
" transform="scale(0.015625)"/>
     </defs>
     <use xlink:href="#SimHei-77"/>
     <use xlink:href="#SimHei-6f" x="50"/>
     <use xlink:href="#SimHei-6e" x="100"/>
     <use xlink:href="#SimHei-64" x="150"/>
     <use xlink:href="#SimHei-65" x="200"/>
     <use xlink:href="#SimHei-72" x="250"/>
     <use xlink:href="#SimHei-6c" x="300"/>
     <use xlink:href="#SimHei-61" x="350"/>
     <use xlink:href="#SimHei-62" x="400"/>
    </g>
   </g>
   <g id="text_20">
    <!-- probiotics -->
    <g transform="translate(155.361786 376.418084) scale(0.12 -0.12)">
     <defs>
      <path id="SimHei-74" d="M 2750 200 
Q 2625 150 2462 112 
Q 2300 75 2025 75 
Q 1575 75 1300 325 
Q 1025 575 1025 1025 
L 1025 2525 
L 175 2525 
L 175 2925 
L 1025 2925 
L 1025 3900 
L 1525 3900 
L 1525 2925 
L 2550 2925 
L 2550 2525 
L 1525 2525 
L 1525 1000 
Q 1525 800 1625 662 
Q 1725 525 2000 525 
Q 2275 525 2450 575 
Q 2625 625 2750 700 
L 2750 200 
z
" transform="scale(0.015625)"/>
     </defs>
     <use xlink:href="#SimHei-70"/>
     <use xlink:href="#SimHei-72" x="50"/>
     <use xlink:href="#SimHei-6f" x="100"/>
     <use xlink:href="#SimHei-62" x="150"/>
     <use xlink:href="#SimHei-69" x="200"/>
     <use xlink:href="#SimHei-6f" x="250"/>
     <use xlink:href="#SimHei-74" x="300"/>
     <use xlink:href="#SimHei-69" x="350"/>
     <use xlink:href="#SimHei-63" x="400"/>
     <use xlink:href="#SimHei-73" x="450"/>
    </g>
   </g>
   <g id="text_21">
    <!-- vitamins -->
    <g transform="translate(602.28222 427.900272) scale(0.12 -0.12)">
     <defs>
      <path id="SimHei-76" d="M 2875 2925 
L 1825 75 
L 1275 75 
L 225 2925 
L 750 2925 
L 1525 750 
L 1575 750 
L 2350 2925 
L 2875 2925 
z
" transform="scale(0.015625)"/>
     </defs>
     <use xlink:href="#SimHei-76"/>
     <use xlink:href="#SimHei-69" x="50"/>
     <use xlink:href="#SimHei-74" x="100"/>
     <use xlink:href="#SimHei-61" x="150"/>
     <use xlink:href="#SimHei-6d" x="200"/>
     <use xlink:href="#SimHei-69" x="250"/>
     <use xlink:href="#SimHei-6e" x="300"/>
     <use xlink:href="#SimHei-73" x="350"/>
    </g>
   </g>
   <g id="text_22">
    <!-- insomnia -->
    <g transform="translate(138.436364 543.804912) scale(0.12 -0.12)">
     <use xlink:href="#SimHei-69"/>
     <use xlink:href="#SimHei-6e" x="50"/>
     <use xlink:href="#SimHei-73" x="100"/>
     <use xlink:href="#SimHei-6f" x="150"/>
     <use xlink:href="#SimHei-6d" x="200"/>
     <use xlink:href="#SimHei-6e" x="250"/>
     <use xlink:href="#SimHei-69" x="300"/>
     <use xlink:href="#SimHei-61" x="350"/>
    </g>
   </g>
   <g id="text_23">
    <!-- collagen -->
    <g transform="translate(740.863801 369.265751) scale(0.12 -0.12)">
     <defs>
      <path id="SimHei-67" d="M 2975 2500 
Q 2800 2550 2637 2562 
Q 2475 2575 2300 2525 
Q 2375 2450 2425 2337 
Q 2475 2225 2475 2000 
Q 2475 1575 2187 1300 
Q 1900 1025 1475 1025 
Q 1375 1025 1212 1062 
Q 1050 1100 950 1150 
Q 875 1100 850 1050 
Q 825 1000 825 925 
Q 825 800 1000 737 
Q 1175 675 1625 675 
Q 2350 675 2612 475 
Q 2875 275 2875 -25 
Q 2875 -425 2487 -612 
Q 2100 -800 1575 -800 
Q 900 -800 575 -625 
Q 250 -450 250 -150 
Q 250 0 375 150 
Q 500 300 700 400 
Q 550 475 462 587 
Q 375 700 375 875 
Q 375 1025 487 1137 
Q 600 1250 750 1325 
Q 625 1450 550 1625 
Q 475 1800 475 2000 
Q 475 2425 762 2700 
Q 1050 2975 1475 2975 
Q 1700 2975 1862 2912 
Q 2025 2850 2150 2725 
Q 2350 2875 2550 2937 
Q 2750 3000 2975 2975 
L 2975 2500 
z
M 1975 2000 
Q 1975 2250 1850 2400 
Q 1725 2550 1475 2550 
Q 1225 2550 1100 2400 
Q 975 2250 975 2000 
Q 975 1750 1100 1600 
Q 1225 1450 1475 1450 
Q 1725 1450 1850 1600 
Q 1975 1750 1975 2000 
z
M 2400 -75 
Q 2400 25 2287 125 
Q 2175 225 1725 225 
Q 1625 225 1450 237 
Q 1275 250 1050 275 
Q 850 200 775 100 
Q 700 0 700 -100 
Q 700 -250 900 -350 
Q 1100 -450 1600 -450 
Q 2025 -450 2212 -337 
Q 2400 -225 2400 -75 
z
" transform="scale(0.015625)"/>
     </defs>
     <use xlink:href="#SimHei-63"/>
     <use xlink:href="#SimHei-6f" x="50"/>
     <use xlink:href="#SimHei-6c" x="100"/>
     <use xlink:href="#SimHei-6c" x="150"/>
     <use xlink:href="#SimHei-61" x="200"/>
     <use xlink:href="#SimHei-67" x="250"/>
     <use xlink:href="#SimHei-65" x="300"/>
     <use xlink:href="#SimHei-6e" x="350"/>
    </g>
   </g>
   <g id="text_24">
    <!-- well-being -->
    <g transform="translate(401.826545 480.652532) scale(0.12 -0.12)">
     <use xlink:href="#SimHei-77"/>
     <use xlink:href="#SimHei-65" x="50"/>
     <use xlink:href="#SimHei-6c" x="100"/>
     <use xlink:href="#SimHei-6c" x="150"/>
     <use xlink:href="#SimHei-2d" x="200"/>
     <use xlink:href="#SimHei-62" x="250"/>
     <use xlink:href="#SimHei-65" x="300"/>
     <use xlink:href="#SimHei-69" x="350"/>
     <use xlink:href="#SimHei-6e" x="400"/>
     <use xlink:href="#SimHei-67" x="450"/>
    </g>
   </g>
   <g id="text_25">
    <!-- pregnancy -->
    <g transform="translate(296.485299 714.675669) scale(0.12 -0.12)">
     <defs>
      <path id="SimHei-79" d="M 2900 2925 
L 1750 -100 
Q 1650 -450 1450 -625 
Q 1250 -800 950 -800 
Q 825 -800 712 -787 
Q 600 -775 500 -725 
L 500 -225 
Q 600 -275 700 -300 
Q 800 -325 875 -325 
Q 1075 -325 1150 -262 
Q 1225 -200 1300 25 
L 200 2925 
L 750 2925 
L 1550 725 
L 1575 725 
L 2350 2925 
L 2900 2925 
z
" transform="scale(0.015625)"/>
     </defs>
     <use xlink:href="#SimHei-70"/>
     <use xlink:href="#SimHei-72" x="50"/>
     <use xlink:href="#SimHei-65" x="100"/>
     <use xlink:href="#SimHei-67" x="150"/>
     <use xlink:href="#SimHei-6e" x="200"/>
     <use xlink:href="#SimHei-61" x="250"/>
     <use xlink:href="#SimHei-6e" x="300"/>
     <use xlink:href="#SimHei-63" x="350"/>
     <use xlink:href="#SimHei-79" x="400"/>
    </g>
   </g>
   <g id="text_26">
    <!-- lose weight -->
    <g transform="translate(162.327931 281.583335) scale(0.12 -0.12)">
     <defs>
      <path id="SimHei-68" d="M 2800 125 
L 2300 125 
L 2300 1925 
Q 2300 2225 2150 2400 
Q 2000 2575 1750 2575 
Q 1425 2575 1137 2237 
Q 850 1900 850 1400 
L 850 125 
L 350 125 
L 350 4400 
L 850 4400 
L 850 2400 
Q 1050 2675 1287 2825 
Q 1525 2975 1900 2975 
Q 2350 2975 2575 2725 
Q 2800 2475 2800 2100 
L 2800 125 
z
" transform="scale(0.015625)"/>
     </defs>
     <use xlink:href="#SimHei-6c"/>
     <use xlink:href="#SimHei-6f" x="50"/>
     <use xlink:href="#SimHei-73" x="100"/>
     <use xlink:href="#SimHei-65" x="150"/>
     <use xlink:href="#SimHei-20" x="200"/>
     <use xlink:href="#SimHei-77" x="250"/>
     <use xlink:href="#SimHei-65" x="300"/>
     <use xlink:href="#SimHei-69" x="350"/>
     <use xlink:href="#SimHei-67" x="400"/>
     <use xlink:href="#SimHei-68" x="450"/>
     <use xlink:href="#SimHei-74" x="500"/>
    </g>
   </g>
   <g id="text_27">
    <!-- intestinal tract -->
    <g transform="translate(206.83494 422.803407) scale(0.12 -0.12)">
     <use xlink:href="#SimHei-69"/>
     <use xlink:href="#SimHei-6e" x="50"/>
     <use xlink:href="#SimHei-74" x="100"/>
     <use xlink:href="#SimHei-65" x="150"/>
     <use xlink:href="#SimHei-73" x="200"/>
     <use xlink:href="#SimHei-74" x="250"/>
     <use xlink:href="#SimHei-69" x="300"/>
     <use xlink:href="#SimHei-6e" x="350"/>
     <use xlink:href="#SimHei-61" x="400"/>
     <use xlink:href="#SimHei-6c" x="450"/>
     <use xlink:href="#SimHei-20" x="500"/>
     <use xlink:href="#SimHei-74" x="550"/>
     <use xlink:href="#SimHei-72" x="600"/>
     <use xlink:href="#SimHei-61" x="650"/>
     <use xlink:href="#SimHei-63" x="700"/>
     <use xlink:href="#SimHei-74" x="750"/>
    </g>
   </g>
   <g id="text_28">
    <!-- nourishment -->
    <g transform="translate(558.985715 494.325454) scale(0.12 -0.12)">
     <use xlink:href="#SimHei-6e"/>
     <use xlink:href="#SimHei-6f" x="50"/>
     <use xlink:href="#SimHei-75" x="100"/>
     <use xlink:href="#SimHei-72" x="150"/>
     <use xlink:href="#SimHei-69" x="200"/>
     <use xlink:href="#SimHei-73" x="250"/>
     <use xlink:href="#SimHei-68" x="300"/>
     <use xlink:href="#SimHei-6d" x="350"/>
     <use xlink:href="#SimHei-65" x="400"/>
     <use xlink:href="#SimHei-6e" x="450"/>
     <use xlink:href="#SimHei-74" x="500"/>
    </g>
   </g>
   <g id="text_29">
    <!-- lactic acid bacteria -->
    <g transform="translate(747.163636 351.535896) scale(0.12 -0.12)">
     <use xlink:href="#SimHei-6c"/>
     <use xlink:href="#SimHei-61" x="50"/>
     <use xlink:href="#SimHei-63" x="100"/>
     <use xlink:href="#SimHei-74" x="150"/>
     <use xlink:href="#SimHei-69" x="200"/>
     <use xlink:href="#SimHei-63" x="250"/>
     <use xlink:href="#SimHei-20" x="300"/>
     <use xlink:href="#SimHei-61" x="350"/>
     <use xlink:href="#SimHei-63" x="400"/>
     <use xlink:href="#SimHei-69" x="450"/>
     <use xlink:href="#SimHei-64" x="500"/>
     <use xlink:href="#SimHei-20" x="550"/>
     <use xlink:href="#SimHei-62" x="600"/>
     <use xlink:href="#SimHei-61" x="650"/>
     <use xlink:href="#SimHei-63" x="700"/>
     <use xlink:href="#SimHei-74" x="750"/>
     <use xlink:href="#SimHei-65" x="800"/>
     <use xlink:href="#SimHei-72" x="850"/>
     <use xlink:href="#SimHei-69" x="900"/>
     <use xlink:href="#SimHei-61" x="950"/>
    </g>
   </g>
   <g id="text_30">
    <!-- weight -->
    <g transform="translate(175.498834 285.46766) scale(0.12 -0.12)">
     <use xlink:href="#SimHei-77"/>
     <use xlink:href="#SimHei-65" x="50"/>
     <use xlink:href="#SimHei-69" x="100"/>
     <use xlink:href="#SimHei-67" x="150"/>
     <use xlink:href="#SimHei-68" x="200"/>
     <use xlink:href="#SimHei-74" x="250"/>
    </g>
   </g>
   <g id="text_31">
    <!-- diet -->
    <g transform="translate(247.552613 489.035142) scale(0.12 -0.12)">
     <use xlink:href="#SimHei-64"/>
     <use xlink:href="#SimHei-69" x="50"/>
     <use xlink:href="#SimHei-65" x="100"/>
     <use xlink:href="#SimHei-74" x="150"/>
    </g>
   </g>
   <g id="text_32">
    <!-- skin -->
    <g transform="translate(701.795099 358.014517) scale(0.12 -0.12)">
     <defs>
      <path id="SimHei-6b" d="M 2925 125 
L 2350 125 
L 1450 1650 
L 875 1100 
L 875 125 
L 375 125 
L 375 4400 
L 875 4400 
L 875 1675 
L 2125 2925 
L 2750 2925 
L 1775 1975 
L 2925 125 
z
" transform="scale(0.015625)"/>
     </defs>
     <use xlink:href="#SimHei-73"/>
     <use xlink:href="#SimHei-6b" x="50"/>
     <use xlink:href="#SimHei-69" x="100"/>
     <use xlink:href="#SimHei-6e" x="150"/>
    </g>
   </g>
   <g id="text_33">
    <!-- maternal -->
    <g transform="translate(351.997699 676.28364) scale(0.12 -0.12)">
     <use xlink:href="#SimHei-6d"/>
     <use xlink:href="#SimHei-61" x="50"/>
     <use xlink:href="#SimHei-74" x="100"/>
     <use xlink:href="#SimHei-65" x="150"/>
     <use xlink:href="#SimHei-72" x="200"/>
     <use xlink:href="#SimHei-6e" x="250"/>
     <use xlink:href="#SimHei-61" x="300"/>
     <use xlink:href="#SimHei-6c" x="350"/>
    </g>
   </g>
   <g id="text_34">
    <!-- opsonize -->
    <g transform="translate(198.848355 536.530286) scale(0.12 -0.12)">
     <defs>
      <path id="SimHei-7a" d="M 2775 125 
L 350 125 
L 350 525 
L 2050 2525 
L 450 2525 
L 450 2925 
L 2650 2925 
L 2650 2525 
L 950 525 
L 2775 525 
L 2775 125 
z
" transform="scale(0.015625)"/>
     </defs>
     <use xlink:href="#SimHei-6f"/>
     <use xlink:href="#SimHei-70" x="50"/>
     <use xlink:href="#SimHei-73" x="100"/>
     <use xlink:href="#SimHei-6f" x="150"/>
     <use xlink:href="#SimHei-6e" x="200"/>
     <use xlink:href="#SimHei-69" x="250"/>
     <use xlink:href="#SimHei-7a" x="300"/>
     <use xlink:href="#SimHei-65" x="350"/>
    </g>
   </g>
   <g id="text_35">
    <!-- surgeon -->
    <g transform="translate(230.250498 603.421714) scale(0.12 -0.12)">
     <use xlink:href="#SimHei-73"/>
     <use xlink:href="#SimHei-75" x="50"/>
     <use xlink:href="#SimHei-72" x="100"/>
     <use xlink:href="#SimHei-67" x="150"/>
     <use xlink:href="#SimHei-65" x="200"/>
     <use xlink:href="#SimHei-6f" x="250"/>
     <use xlink:href="#SimHei-6e" x="300"/>
    </g>
   </g>
   <g id="text_36">
    <!-- stay up late -->
    <g transform="translate(678.094926 421.978626) scale(0.12 -0.12)">
     <use xlink:href="#SimHei-73"/>
     <use xlink:href="#SimHei-74" x="50"/>
     <use xlink:href="#SimHei-61" x="100"/>
     <use xlink:href="#SimHei-79" x="150"/>
     <use xlink:href="#SimHei-20" x="200"/>
     <use xlink:href="#SimHei-75" x="250"/>
     <use xlink:href="#SimHei-70" x="300"/>
     <use xlink:href="#SimHei-20" x="350"/>
     <use xlink:href="#SimHei-6c" x="400"/>
     <use xlink:href="#SimHei-61" x="450"/>
     <use xlink:href="#SimHei-74" x="500"/>
     <use xlink:href="#SimHei-65" x="550"/>
    </g>
   </g>
   <g id="text_37">
    <!-- breakfast -->
    <g transform="translate(183.775102 358.360961) scale(0.12 -0.12)">
     <use xlink:href="#SimHei-62"/>
     <use xlink:href="#SimHei-72" x="50"/>
     <use xlink:href="#SimHei-65" x="100"/>
     <use xlink:href="#SimHei-61" x="150"/>
     <use xlink:href="#SimHei-6b" x="200"/>
     <use xlink:href="#SimHei-66" x="250"/>
     <use xlink:href="#SimHei-61" x="300"/>
     <use xlink:href="#SimHei-73" x="350"/>
     <use xlink:href="#SimHei-74" x="400"/>
    </g>
   </g>
   <g id="text_38">
    <!-- conceived -->
    <g transform="translate(233.665416 726.349091) scale(0.12 -0.12)">
     <use xlink:href="#SimHei-63"/>
     <use xlink:href="#SimHei-6f" x="50"/>
     <use xlink:href="#SimHei-6e" x="100"/>
     <use xlink:href="#SimHei-63" x="150"/>
     <use xlink:href="#SimHei-65" x="200"/>
     <use xlink:href="#SimHei-69" x="250"/>
     <use xlink:href="#SimHei-76" x="300"/>
     <use xlink:href="#SimHei-65" x="350"/>
     <use xlink:href="#SimHei-64" x="400"/>
    </g>
   </g>
   <g id="text_39">
    <!-- flatulence -->
    <g transform="translate(141.205647 531.946852) scale(0.12 -0.12)">
     <use xlink:href="#SimHei-66"/>
     <use xlink:href="#SimHei-6c" x="50"/>
     <use xlink:href="#SimHei-61" x="100"/>
     <use xlink:href="#SimHei-74" x="150"/>
     <use xlink:href="#SimHei-75" x="200"/>
     <use xlink:href="#SimHei-6c" x="250"/>
     <use xlink:href="#SimHei-65" x="300"/>
     <use xlink:href="#SimHei-6e" x="350"/>
     <use xlink:href="#SimHei-63" x="400"/>
     <use xlink:href="#SimHei-65" x="450"/>
    </g>
   </g>
   <g id="text_40">
    <!-- gastrointestinal -->
    <g transform="translate(165.709414 502.154536) scale(0.12 -0.12)">
     <use xlink:href="#SimHei-67"/>
     <use xlink:href="#SimHei-61" x="50"/>
     <use xlink:href="#SimHei-73" x="100"/>
     <use xlink:href="#SimHei-74" x="150"/>
     <use xlink:href="#SimHei-72" x="200"/>
     <use xlink:href="#SimHei-6f" x="250"/>
     <use xlink:href="#SimHei-69" x="300"/>
     <use xlink:href="#SimHei-6e" x="350"/>
     <use xlink:href="#SimHei-74" x="400"/>
     <use xlink:href="#SimHei-65" x="450"/>
     <use xlink:href="#SimHei-73" x="500"/>
     <use xlink:href="#SimHei-74" x="550"/>
     <use xlink:href="#SimHei-69" x="600"/>
     <use xlink:href="#SimHei-6e" x="650"/>
     <use xlink:href="#SimHei-61" x="700"/>
     <use xlink:href="#SimHei-6c" x="750"/>
    </g>
   </g>
   <g id="text_41">
    <!-- bodyfat -->
    <g transform="translate(471.523629 396.973081) scale(0.12 -0.12)">
     <use xlink:href="#SimHei-62"/>
     <use xlink:href="#SimHei-6f" x="50"/>
     <use xlink:href="#SimHei-64" x="100"/>
     <use xlink:href="#SimHei-79" x="150"/>
     <use xlink:href="#SimHei-66" x="200"/>
     <use xlink:href="#SimHei-61" x="250"/>
     <use xlink:href="#SimHei-74" x="300"/>
    </g>
   </g>
   <g id="text_42">
    <!-- capsule -->
    <g transform="translate(378.476801 512.130125) scale(0.12 -0.12)">
     <use xlink:href="#SimHei-63"/>
     <use xlink:href="#SimHei-61" x="50"/>
     <use xlink:href="#SimHei-70" x="100"/>
     <use xlink:href="#SimHei-73" x="150"/>
     <use xlink:href="#SimHei-75" x="200"/>
     <use xlink:href="#SimHei-6c" x="250"/>
     <use xlink:href="#SimHei-65" x="300"/>
    </g>
   </g>
   <g id="text_43">
    <!-- yogurt -->
    <g transform="translate(311.292375 422.280213) scale(0.12 -0.12)">
     <use xlink:href="#SimHei-79"/>
     <use xlink:href="#SimHei-6f" x="50"/>
     <use xlink:href="#SimHei-67" x="100"/>
     <use xlink:href="#SimHei-75" x="150"/>
     <use xlink:href="#SimHei-72" x="200"/>
     <use xlink:href="#SimHei-74" x="250"/>
    </g>
   </g>
   <g id="text_44">
    <!-- defecate -->
    <g transform="translate(160.435208 506.876184) scale(0.12 -0.12)">
     <use xlink:href="#SimHei-64"/>
     <use xlink:href="#SimHei-65" x="50"/>
     <use xlink:href="#SimHei-66" x="100"/>
     <use xlink:href="#SimHei-65" x="150"/>
     <use xlink:href="#SimHei-63" x="200"/>
     <use xlink:href="#SimHei-61" x="250"/>
     <use xlink:href="#SimHei-74" x="300"/>
     <use xlink:href="#SimHei-65" x="350"/>
    </g>
   </g>
   <g id="text_45">
    <!-- fruits -->
    <g transform="translate(271.775272 383.071074) scale(0.12 -0.12)">
     <use xlink:href="#SimHei-66"/>
     <use xlink:href="#SimHei-72" x="50"/>
     <use xlink:href="#SimHei-75" x="100"/>
     <use xlink:href="#SimHei-69" x="150"/>
     <use xlink:href="#SimHei-74" x="200"/>
     <use xlink:href="#SimHei-73" x="250"/>
    </g>
   </g>
   <g id="text_46">
    <!-- bacterial community -->
    <g transform="translate(171.07662 506.955437) scale(0.12 -0.12)">
     <use xlink:href="#SimHei-62"/>
     <use xlink:href="#SimHei-61" x="50"/>
     <use xlink:href="#SimHei-63" x="100"/>
     <use xlink:href="#SimHei-74" x="150"/>
     <use xlink:href="#SimHei-65" x="200"/>
     <use xlink:href="#SimHei-72" x="250"/>
     <use xlink:href="#SimHei-69" x="300"/>
     <use xlink:href="#SimHei-61" x="350"/>
     <use xlink:href="#SimHei-6c" x="400"/>
     <use xlink:href="#SimHei-20" x="450"/>
     <use xlink:href="#SimHei-63" x="500"/>
     <use xlink:href="#SimHei-6f" x="550"/>
     <use xlink:href="#SimHei-6d" x="600"/>
     <use xlink:href="#SimHei-6d" x="650"/>
     <use xlink:href="#SimHei-75" x="700"/>
     <use xlink:href="#SimHei-6e" x="750"/>
     <use xlink:href="#SimHei-69" x="800"/>
     <use xlink:href="#SimHei-74" x="850"/>
     <use xlink:href="#SimHei-79" x="900"/>
    </g>
   </g>
   <g id="text_47">
    <!-- IQ -->
    <g transform="translate(330.374182 133.330909) scale(0.12 -0.12)">
     <defs>
      <path id="SimHei-49" d="M 1850 125 
L 1275 125 
L 1275 4400 
L 1850 4400 
L 1850 125 
z
" transform="scale(0.015625)"/>
      <path id="SimHei-51" d="M 2950 2275 
Q 2950 1675 2862 1262 
Q 2775 850 2575 600 
L 2775 225 
L 2375 -200 
L 2150 225 
Q 2050 150 1900 112 
Q 1750 75 1575 75 
Q 925 75 550 587 
Q 175 1100 175 2275 
Q 175 3450 550 3950 
Q 925 4450 1575 4450 
Q 2225 4450 2587 3950 
Q 2950 3450 2950 2275 
z
M 2350 2275 
Q 2350 3325 2125 3650 
Q 1900 3975 1575 3975 
Q 1250 3975 1012 3650 
Q 775 3325 775 2275 
Q 775 1225 1012 887 
Q 1250 550 1575 550 
Q 1700 550 1800 587 
Q 1900 625 1950 675 
L 1550 1450 
L 1900 1875 
L 2250 1200 
Q 2300 1450 2325 1650 
Q 2350 1850 2350 2275 
z
" transform="scale(0.015625)"/>
     </defs>
     <use xlink:href="#SimHei-49"/>
     <use xlink:href="#SimHei-51" x="50"/>
    </g>
   </g>
   <g id="text_48">
    <!-- after-meal -->
    <g transform="translate(212.019652 211.025478) scale(0.12 -0.12)">
     <use xlink:href="#SimHei-61"/>
     <use xlink:href="#SimHei-66" x="50"/>
     <use xlink:href="#SimHei-74" x="100"/>
     <use xlink:href="#SimHei-65" x="150"/>
     <use xlink:href="#SimHei-72" x="200"/>
     <use xlink:href="#SimHei-2d" x="250"/>
     <use xlink:href="#SimHei-6d" x="300"/>
     <use xlink:href="#SimHei-65" x="350"/>
     <use xlink:href="#SimHei-61" x="400"/>
     <use xlink:href="#SimHei-6c" x="450"/>
    </g>
   </g>
   <g id="text_49">
    <!-- keywords by probiotic brands -->
    <g transform="translate(358.8 97.68) scale(0.12 -0.12)">
     <use xlink:href="#SimHei-6b"/>
     <use xlink:href="#SimHei-65" x="50"/>
     <use xlink:href="#SimHei-79" x="100"/>
     <use xlink:href="#SimHei-77" x="150"/>
     <use xlink:href="#SimHei-6f" x="200"/>
     <use xlink:href="#SimHei-72" x="250"/>
     <use xlink:href="#SimHei-64" x="300"/>
     <use xlink:href="#SimHei-73" x="350"/>
     <use xlink:href="#SimHei-20" x="400"/>
     <use xlink:href="#SimHei-62" x="450"/>
     <use xlink:href="#SimHei-79" x="500"/>
     <use xlink:href="#SimHei-20" x="550"/>
     <use xlink:href="#SimHei-70" x="600"/>
     <use xlink:href="#SimHei-72" x="650"/>
     <use xlink:href="#SimHei-6f" x="700"/>
     <use xlink:href="#SimHei-62" x="750"/>
     <use xlink:href="#SimHei-69" x="800"/>
     <use xlink:href="#SimHei-6f" x="850"/>
     <use xlink:href="#SimHei-74" x="900"/>
     <use xlink:href="#SimHei-69" x="950"/>
     <use xlink:href="#SimHei-63" x="1000"/>
     <use xlink:href="#SimHei-20" x="1050"/>
     <use xlink:href="#SimHei-62" x="1100"/>
     <use xlink:href="#SimHei-72" x="1150"/>
     <use xlink:href="#SimHei-61" x="1200"/>
     <use xlink:href="#SimHei-6e" x="1250"/>
     <use xlink:href="#SimHei-64" x="1300"/>
     <use xlink:href="#SimHei-73" x="1350"/>
    </g>
   </g>
   <g id="legend_1">
    <g id="patch_7">
     <path d="M 698.6 138.18 
L 770.6 138.18 
Q 772.6 138.18 772.6 136.18 
L 772.6 110.68 
Q 772.6 108.68 770.6 108.68 
L 698.6 108.68 
Q 696.6 108.68 696.6 110.68 
L 696.6 136.18 
Q 696.6 138.18 698.6 138.18 
z
" style="fill: #ffffff; opacity: 0.8; stroke: #cccccc; stroke-linejoin: miter"/>
    </g>
    <g id="PathCollection_3">
     <g>
      <use xlink:href="#md788cc166c" x="710.6" y="117.055" style="fill: #ff0000; fill-opacity: 0.8; stroke: #ff0000; stroke-opacity: 0.8"/>
     </g>
    </g>
    <g id="text_50">
     <!-- brand -->
     <g transform="translate(728.6 119.68) scale(0.1 -0.1)">
      <use xlink:href="#SimHei-62"/>
      <use xlink:href="#SimHei-72" x="50"/>
      <use xlink:href="#SimHei-61" x="100"/>
      <use xlink:href="#SimHei-6e" x="150"/>
      <use xlink:href="#SimHei-64" x="200"/>
     </g>
    </g>
    <g id="PathCollection_4">
     <g>
      <use xlink:href="#mc1fec957b5" x="710.6" y="130.305" style="fill: #0000ff; fill-opacity: 0.8; stroke: #0000ff; stroke-opacity: 0.8"/>
     </g>
    </g>
    <g id="text_51">
     <!-- keywords -->
     <g transform="translate(728.6 132.93) scale(0.1 -0.1)">
      <use xlink:href="#SimHei-6b"/>
      <use xlink:href="#SimHei-65" x="50"/>
      <use xlink:href="#SimHei-79" x="100"/>
      <use xlink:href="#SimHei-77" x="150"/>
      <use xlink:href="#SimHei-6f" x="200"/>
      <use xlink:href="#SimHei-72" x="250"/>
      <use xlink:href="#SimHei-64" x="300"/>
      <use xlink:href="#SimHei-73" x="350"/>
     </g>
    </g>
   </g>
  </g>
 </g>
 <defs>
  <clipPath id="p24a0c2ed1f">
   <rect x="108" y="103.68" width="669.6" height="652.32"/>
  </clipPath>
 </defs>
</svg>
